<svg xmlns="http://www.w3.org/2000/svg" viewBox="0 0 64 64" fill="none">
  <defs>
    <linearGradient id="bg" x1="0" y1="0" x2="64" y2="64" gradientUnits="userSpaceOnUse">
      <stop offset="0" stop-color="#fbbf24"/>
      <stop offset="1" stop-color="#d97706"/>
    </linearGradient>
  </defs>
  <rect width="64" height="64" rx="14" fill="url(#bg)"/>
  <g transform="translate(8 12)">
    <!-- left page -->
    <path d="M2 4 C2 2.9 2.9 2 4 2 H22 C23.7 2 25 3.3 25 5 V36 C25 37.1 24.1 38 23 38 H4 C2.9 38 2 37.1 2 36 Z"
          fill="#fff" stroke="#fff7ed" stroke-width="0.5"/>
    <!-- right page -->
    <path d="M46 4 C46 2.9 45.1 2 44 2 H26 C24.3 2 23 3.3 23 5 V36 C23 37.1 23.9 38 25 38 H44 C45.1 38 46 37.1 46 36 Z"
          fill="#fff" stroke="#fff7ed" stroke-width="0.5"/>
    <!-- spine -->
    <rect x="22.5" y="2" width="3" height="36" rx="0.6" fill="#fde68a"/>
    <!-- text lines (left) -->
    <path d="M6 10 H19 M6 14 H19 M6 18 H17 M6 22 H19 M6 26 H15" stroke="#d97706" stroke-width="1.4" stroke-linecap="round" opacity="0.85"/>
    <!-- text lines (right) -->
    <path d="M29 10 H42 M29 14 H42 M29 18 H40 M29 22 H42 M29 26 H38" stroke="#d97706" stroke-width="1.4" stroke-linecap="round" opacity="0.85"/>
    <!-- bookmark -->
    <path d="M36 2 H40 V12 L38 10 L36 12 Z" fill="#dc2626"/>
  </g>
</svg>
